<svg width="46" height="46" viewBox="0 0 46 46" fill="none" xmlns="http://www.w3.org/2000/svg">
<path opacity="0.25" d="M39.9237 36.3019C37.1374 39.8469 33.3081 42.4275 28.9764 43.6794C24.6447 44.9312 20.0292 44.7913 15.7813 43.2791C11.5334 41.767 7.86763 38.9592 5.30123 35.2518C2.73484 31.5444 1.39744 27.1248 1.47778 22.6165C1.55811 18.1082 3.05212 13.739 5.74898 10.1254C8.44583 6.51181 12.2093 3.83634 16.5084 2.47654C20.8075 1.11674 25.425 1.14128 29.7094 2.5467C33.9937 3.95211 37.7286 6.66744 40.3869 10.3095" stroke="#29BF86" stroke-width="2.94872" stroke-linecap="round"/>
<path opacity="0.25" d="M35.0975 35.0975C32.7241 37.471 29.705 39.0939 26.416 39.7643C23.1271 40.4346 19.7136 40.1228 16.6005 38.8676C13.4875 37.6124 10.8124 35.4694 8.90828 32.7051C7.00415 29.9409 5.95512 26.6777 5.89177 23.3218C5.82842 19.9658 6.75356 16.6653 8.55202 13.8312C10.3505 10.9971 12.9428 8.7546 16.0062 7.38283C19.0697 6.01106 22.469 5.57065 25.7809 6.11641C29.0928 6.66217 32.171 8.17001 34.6323 10.4522" stroke="#29BF86" stroke-width="2.34385" stroke-linecap="round"/>
<path d="M25.6443 38.7454C43.8286 24.6583 10.4523 14.5764 31.2147 8.31545C4.78985 -0.615577 17.5879 35.8451 10.1301 38.7454" fill="#096959"/>
<path d="M25.6443 38.7454C43.8286 24.6583 10.4523 14.5764 31.2147 8.31545C4.78985 -0.615577 17.5879 35.8451 10.1301 38.7454" stroke="#29BF86" stroke-width="1.0103" stroke-linecap="round" stroke-linejoin="round"/>
<path d="M31.3047 38.7512H8.05638" stroke="#29BF86" stroke-width="1.0103" stroke-linecap="round" stroke-linejoin="round"/>
<path d="M30.2422 8.31177C25.6499 6.88287 22.3645 6.92013 20.002 7.89673C17.5016 8.93038 15.9707 11.0427 15.0176 13.7493C14.0626 16.4611 13.7003 19.7364 13.5186 23.0354C13.3455 26.1777 13.3351 29.375 13.1211 32.0393C16.3819 31.9007 17.9454 30.8334 18.6924 29.3752C19.4874 27.8232 19.41 25.7513 19.2334 23.5793C19.1463 22.5089 19.0365 21.4159 19.0117 20.3909C18.9869 19.3651 19.046 18.3787 19.3096 17.5149C19.5753 16.6439 20.0511 15.8923 20.8535 15.3528C21.5883 14.8588 22.5738 14.5608 23.873 14.4846C23.7086 13.2785 24.0036 12.1296 25.0361 11.0745C26.0311 10.0578 27.6967 9.14219 30.2422 8.31177Z" fill="#29BF86" stroke="#29BF86" stroke-width="0.589743"/>
<path d="M28.7422 35.9324C27.9775 36.83 26.9936 37.7694 25.751 38.7107H31.2852C31.9877 37.9819 32.168 37.4529 32.0664 37.0701C31.9639 36.6844 31.5699 36.4247 31.0713 36.2527C30.5753 36.0816 29.9888 36.0019 29.5254 35.9646C29.2941 35.946 29.0935 35.9376 28.9512 35.9343C28.88 35.9327 28.823 35.9324 28.7842 35.9324C28.7663 35.9324 28.7522 35.9323 28.7422 35.9324Z" fill="#29BF86" stroke="#29BF86" stroke-width="0.0764034"/>
</svg>
