<svg width="266" height="91" viewBox="0 0 266 91" fill="none" xmlns="http://www.w3.org/2000/svg">
<path d="M2.60938 68.6274C1.50481 68.6274 0.609375 67.732 0.609375 66.6274V2C0.609375 0.89543 1.50481 0 2.60937 0H23.6215C24.5548 0 25.3641 0.645609 25.5715 1.55566L38.6703 59.0404C38.7721 59.4871 39.1693 59.8039 39.6274 59.8039C40.1695 59.8039 40.609 59.3644 40.609 58.8223V2C40.609 0.89543 41.5044 0 42.609 0H51.354C52.4585 0 53.354 0.895431 53.354 2V66.6274C53.354 67.732 52.4585 68.6274 51.354 68.6274H30.3419C29.4085 68.6274 28.5993 67.9818 28.3919 67.0718L15.293 9.58705C15.1912 9.1404 14.7941 8.82353 14.336 8.82353C13.7938 8.82353 13.3544 9.26301 13.3544 9.80513V66.6274C13.3544 67.732 12.4589 68.6274 11.3544 68.6274H2.60938Z" fill="#181F25"/>
<path d="M88.8362 70C83.9996 70 79.7186 68.9869 75.9932 66.9608C72.3331 64.8693 69.4573 61.9608 67.3658 58.2353C65.3397 54.4444 64.3266 50 64.3266 44.902V43.7255C64.3266 38.6275 65.3397 34.2157 67.3658 30.4902C69.3919 26.6993 72.235 23.7908 75.8951 21.7647C79.5552 19.6732 83.8035 18.6274 88.6401 18.6274C93.4113 18.6274 97.5616 19.7059 101.091 21.8627C104.62 23.9542 107.365 26.8954 109.326 30.6863C111.287 34.4118 112.267 38.7582 112.267 43.7255V45.9412C112.267 47.0457 111.372 47.9412 110.267 47.9412H78.9555C77.8202 47.9412 76.8929 48.8919 77.114 50.0054C77.5917 52.4124 78.754 54.4367 80.601 56.0784C82.9539 58.1699 85.8297 59.2157 89.2283 59.2157C92.6923 59.2157 95.2413 58.4641 96.8753 56.9608C97.9463 55.9755 98.8488 54.9199 99.5829 53.7942C100.207 52.8373 101.448 52.4049 102.46 52.9353L108.908 56.3159C109.894 56.8328 110.271 58.0582 109.657 58.9868C108.855 60.1988 107.863 61.4842 106.679 62.8431C104.98 64.8039 102.692 66.5033 99.8165 67.9412C96.9407 69.3137 93.2806 70 88.8362 70ZM77.5511 36.4488C77.1375 37.6101 78.0926 38.7255 79.3254 38.7255H97.5237C98.7015 38.7255 99.646 37.7016 99.314 36.5716C98.7754 34.7385 97.7665 33.2016 96.2871 31.9608C94.3263 30.2614 91.7446 29.4118 88.5421 29.4118C85.2087 29.4118 82.5617 30.2614 80.601 31.9608C79.2014 33.1737 78.1848 34.6697 77.5511 36.4488Z" fill="#181F25"/>
<path d="M141.791 69.4118C138.001 69.4118 134.667 68.5621 131.791 66.8627C128.981 65.098 126.792 62.6797 125.223 59.6078C123.654 56.5359 122.87 53.0065 122.87 49.0196V22C122.87 20.8954 123.765 20 124.87 20H133.223C134.327 20 135.223 20.8954 135.223 22V48.0392C135.223 51.6993 136.105 54.4444 137.87 56.2745C139.7 58.1046 142.282 59.0196 145.615 59.0196C149.406 59.0196 152.347 57.7778 154.438 55.2941C156.53 52.7451 157.576 49.2157 157.576 44.7059V22C157.576 20.8954 158.471 20 159.576 20H167.928C169.033 20 169.928 20.8954 169.928 22V66.6274C169.928 67.732 169.033 68.6274 167.928 68.6274H159.772C158.667 68.6274 157.772 67.732 157.772 66.6274V63.338C157.772 62.7398 157.287 62.2549 156.689 62.2549C156.272 62.2549 155.897 62.4968 155.687 62.8562C154.851 64.2822 153.487 65.6831 151.595 67.0588C149.438 68.6274 146.17 69.4118 141.791 69.4118Z" fill="#181F25"/>
<path d="M185.674 68.6274C184.57 68.6274 183.674 67.732 183.674 66.6274V22C183.674 20.8954 184.57 20 185.674 20H193.831C194.936 20 195.831 20.8954 195.831 22V24.4512C195.831 25.025 196.296 25.4902 196.87 25.4902C197.306 25.4902 197.691 25.2155 197.869 24.818C198.599 23.1974 199.684 21.9835 201.125 21.1765C202.825 20.2614 204.785 19.8039 207.008 19.8039H210.89C211.994 19.8039 212.89 20.6994 212.89 21.8039V28.7843C212.89 29.8889 211.994 30.7843 210.89 30.7843H206.811C203.674 30.7843 201.093 31.634 199.066 33.3333C197.04 34.9673 196.027 37.5163 196.027 40.9804V66.6274C196.027 67.732 195.132 68.6274 194.027 68.6274H185.674Z" fill="#181F25"/>
<path d="M240.39 22C240.39 20.8954 241.287 19.9917 242.388 20.08C245.642 20.3408 248.82 21.237 251.74 22.7248C254.66 24.2126 257.253 26.2569 259.376 28.736C260.095 29.5749 259.891 30.8317 258.997 31.4809L250.3 37.7996C249.854 38.1243 249.231 38.0218 248.868 37.6056C247.925 36.524 246.781 35.6305 245.497 34.9762C242.889 33.6469 240.39 31.3765 240.39 28.4486V22Z" fill="#29BF86"/>
<path d="M260.698 34.2022C261.673 33.6836 262.892 34.0512 263.331 35.0648C263.842 36.2442 264.261 37.4613 264.584 38.7052C264.863 39.7741 264.128 40.8143 263.04 41.0061L254.563 42.5009C252.854 42.8022 251.262 41.6283 250.502 40.0688C250.407 39.8739 250.478 39.6359 250.67 39.5341L260.698 34.2022Z" fill="#29BF86"/>
<path d="M231.774 66.3252C231.36 67.3494 230.19 67.8513 229.202 67.357C226.283 65.8963 223.672 63.8748 221.522 61.4015C219.372 58.9282 217.734 56.0613 216.693 52.9673C216.341 51.9203 217.001 50.8314 218.073 50.5642L224.33 49.0041C227.171 48.2958 229.979 50.171 231.899 52.3807C233.82 54.5904 235.286 57.6315 234.19 60.3462L231.774 66.3252Z" fill="#8F40D4"/>
<path d="M263.376 44.1973C264.48 44.1588 265.414 45.0236 265.364 46.127C265.217 49.388 264.433 52.5953 263.048 55.5655C261.663 58.5356 259.71 61.1984 257.307 63.4072C256.493 64.1547 255.23 63.9947 254.55 63.1242L247.932 54.6531C247.592 54.2179 247.672 53.5926 248.076 53.2153C249.124 52.2348 249.977 51.0607 250.586 49.7545C251.823 47.1009 254.005 44.5246 256.931 44.4224L263.376 44.1973Z" fill="#4995F2"/>
<path d="M241.994 67.944C242.071 69.0459 241.24 70.01 240.135 69.9987C238.85 69.9856 237.568 69.8734 236.3 69.6631C235.21 69.4824 234.558 68.3886 234.826 67.3168L237.241 57.6305C237.477 56.6835 238.437 56.1221 239.409 56.2072C240.382 56.2923 241.23 57.0118 241.298 57.9854L241.994 67.944Z" fill="#8F40D4"/>
<path d="M224.413 28.4552C223.645 27.6606 223.663 26.3875 224.516 25.6862C225.509 24.8701 226.564 24.1318 227.67 23.4778C228.621 22.9158 229.823 23.335 230.307 24.3277L235.02 33.9898C235.262 34.4862 235.053 35.0811 234.58 35.3663C234.142 35.6305 233.722 35.9243 233.324 36.2456C232.894 36.5925 232.264 36.5854 231.88 36.1881L224.413 28.4552Z" fill="#FFBB00"/>
<path d="M233.283 23.1257C232.941 22.0752 233.515 20.9385 234.589 20.6823C234.751 20.6436 234.914 20.6065 235.077 20.5711C236.156 20.3364 237.166 21.112 237.314 22.2067L238.644 32.0672C238.777 33.0524 238.08 33.945 237.128 34.2332C237.009 34.2692 236.882 34.2048 236.844 34.0866L233.283 23.1257Z" fill="#FFBB00"/>
<path d="M218.777 37.1335C217.739 36.7558 217.197 35.6039 217.656 34.5995C218.191 33.4307 218.815 32.3049 219.523 31.232C220.131 30.3101 221.395 30.1597 222.266 30.8398L230.737 37.4581C231.172 37.7982 231.245 38.4245 230.945 38.8881C230.667 39.3177 230.419 39.7657 230.202 40.229C229.967 40.7292 229.398 40.9991 228.879 40.8103L218.777 37.1335Z" fill="#FFBB00"/>
<path d="M217.516 47.4042C216.417 47.5196 215.425 46.7222 215.398 45.6179C215.366 44.333 215.433 43.0476 215.599 41.773C215.742 40.6777 216.812 39.9884 217.893 40.218L229.002 42.5793C229.214 42.6244 229.348 42.8334 229.311 43.047C229.01 44.7557 227.803 46.323 226.077 46.5043L217.516 47.4042Z" fill="#FFBB00"/>
<path d="M251.89 64.9186C252.442 65.8752 252.117 67.1063 251.12 67.5803C249.959 68.132 248.757 68.5933 247.525 68.9601C246.467 69.2754 245.402 68.5778 245.172 67.4974L243.382 59.0771C243.021 57.38 244.139 55.7479 245.671 54.9334C245.862 54.8316 246.103 54.895 246.211 55.0829L251.89 64.9186Z" fill="#4995F2"/>
<path d="M255.555 91V79.3474H257.404V80.6664L257.845 80.256C258.088 80.0303 258.539 79.7184 258.848 79.5629C259.169 79.4016 259.674 79.2355 260.024 79.1762C260.376 79.1166 260.908 79.0934 261.27 79.1218C261.617 79.1491 262.125 79.2492 262.399 79.3443C262.673 79.4393 263.053 79.6088 263.243 79.721C263.434 79.8331 263.808 80.146 264.075 80.4162C264.375 80.7206 264.669 81.133 264.848 81.4996C265.006 81.8253 265.193 82.3182 265.263 82.5949C265.335 82.8803 265.39 83.4668 265.39 83.9493C265.39 84.4345 265.335 85.0169 265.262 85.3037C265.191 85.5805 265.018 86.0469 264.876 86.3401C264.734 86.6334 264.389 87.1184 264.11 87.4181C263.727 87.829 263.435 88.0456 262.92 88.2996C262.43 88.5417 262.05 88.6619 261.571 88.727C261.205 88.7769 260.675 88.7919 260.394 88.7603C260.114 88.7288 259.657 88.6276 259.379 88.5355C259.102 88.4434 258.743 88.2864 258.581 88.1867C258.419 88.0869 258.145 87.8767 257.971 87.7196L257.656 87.4339V91H255.555ZM260.725 86.8927C260.909 86.8686 261.195 86.8144 261.36 86.7723C261.525 86.7302 261.84 86.5754 262.061 86.4282C262.283 86.281 262.591 85.967 262.747 85.7305C262.903 85.4939 263.093 85.0534 263.17 84.7517C263.263 84.3838 263.293 84.0341 263.261 83.6906C263.235 83.4088 263.13 82.955 263.029 82.6822C262.908 82.3571 262.711 82.0526 262.457 81.7987C262.244 81.5856 261.927 81.3437 261.752 81.2611C261.578 81.1785 261.229 81.0674 260.976 81.0142C260.62 80.9391 260.4 80.9417 259.995 81.0258C259.708 81.0854 259.327 81.2087 259.149 81.2999C258.971 81.3911 258.67 81.6066 258.479 81.7787C258.288 81.9509 258.025 82.2606 257.894 82.4671C257.664 82.8297 257.656 82.8799 257.656 83.9374C257.656 85.0167 257.66 85.038 257.916 85.4384C258.059 85.6618 258.305 85.9594 258.465 86.0997C258.624 86.24 258.914 86.4384 259.109 86.5405C259.304 86.6427 259.672 86.7736 259.926 86.8314C260.18 86.8892 260.54 86.9167 260.725 86.8927ZM124.547 88.7941C124.408 88.7889 124.099 88.7521 123.861 88.7121C123.623 88.6721 123.216 88.5599 122.958 88.4627C122.68 88.3584 122.305 88.1185 122.042 87.8773C121.798 87.6525 121.496 87.2819 121.372 87.0537C121.249 86.8255 121.09 86.4151 121.019 86.1418C120.915 85.7424 120.89 85.0802 120.89 82.7679V79.891L122.991 79.3697V82.2564C122.991 84.6625 123.014 85.2194 123.127 85.6017C123.218 85.9111 123.363 86.1575 123.574 86.359C123.745 86.5233 124.039 86.7038 124.226 86.7601C124.413 86.8164 124.778 86.8625 125.037 86.8625C125.309 86.8625 125.706 86.7877 125.979 86.6849C126.293 86.567 126.626 86.3429 126.97 86.018L127.489 85.5286L127.573 79.9067L128.498 79.6715C129.006 79.5421 129.47 79.4352 129.527 79.434C129.61 79.4323 129.632 80.3989 129.632 83.9915V88.5512H127.783V87.4423L127.3 87.8235C127.034 88.0331 126.6 88.3005 126.336 88.4178C126.071 88.5351 125.617 88.6698 125.327 88.7172C125.037 88.7645 124.685 88.7991 124.547 88.7941ZM135.474 88.7523C135.012 88.7747 134.388 88.7613 134.087 88.7227C133.787 88.6841 133.295 88.5889 132.995 88.5111C132.694 88.4333 132.231 88.2724 131.965 88.1534L131.481 87.9371V86.9706C131.481 86.439 131.51 86.0167 131.544 86.0322C131.579 86.0477 131.857 86.183 132.162 86.333C132.467 86.4829 133.035 86.6822 133.423 86.7757C133.895 86.8893 134.419 86.9459 135.002 86.9463C135.482 86.9467 136.02 86.9033 136.197 86.85C136.374 86.7967 136.602 86.664 136.704 86.5552C136.81 86.4421 136.889 86.2488 136.889 86.1043C136.889 85.9652 136.817 85.7709 136.728 85.6724C136.64 85.574 136.424 85.42 136.249 85.3302C136.074 85.2404 135.312 84.9636 134.556 84.7151C133.8 84.4666 133.002 84.1572 132.781 84.0276C132.561 83.898 132.25 83.6597 132.089 83.4982C131.928 83.3367 131.721 83.0335 131.629 82.8245C131.527 82.5942 131.458 82.2419 131.452 81.9303C131.447 81.6475 131.495 81.2337 131.559 81.0106C131.63 80.7599 131.815 80.4473 132.044 80.1916C132.247 79.9642 132.612 79.681 132.853 79.5622C133.095 79.4435 133.575 79.2857 133.921 79.2116C134.377 79.114 134.792 79.0897 135.432 79.1232C135.918 79.1487 136.599 79.2444 136.945 79.3361C137.292 79.4277 137.755 79.5835 137.975 79.6823L138.374 79.862V80.7868C138.374 81.2955 138.354 81.7117 138.33 81.7117C138.305 81.7117 138.106 81.6211 137.888 81.5102C137.67 81.3994 137.227 81.2257 136.903 81.1243C136.58 81.0228 135.974 80.919 135.558 80.8935C135.086 80.8646 134.663 80.8853 134.431 80.9485C134.227 81.0043 133.953 81.1579 133.822 81.2899C133.671 81.4415 133.583 81.6186 133.583 81.7709C133.583 81.9034 133.642 82.0971 133.715 82.2011C133.787 82.3052 134.024 82.4792 134.24 82.5879C134.457 82.6965 135.24 82.9793 135.981 83.2162C136.913 83.5139 137.489 83.7511 137.848 83.984C138.134 84.1694 138.48 84.4777 138.618 84.6692C138.759 84.8643 138.913 85.2262 138.968 85.4931C139.022 85.7549 139.045 86.1511 139.018 86.3735C138.992 86.5959 138.899 86.9398 138.812 87.1378C138.725 87.3357 138.53 87.6224 138.378 87.7749C138.226 87.9274 137.924 88.1427 137.707 88.2533C137.489 88.3639 137.087 88.5123 136.813 88.583C136.539 88.6537 135.937 88.7299 135.474 88.7523ZM179.644 88.7543C179.207 88.7764 178.66 88.7634 178.429 88.7254C178.198 88.6875 177.839 88.6103 177.631 88.5538C177.423 88.4973 176.988 88.3121 176.664 88.1423C176.341 87.9724 175.868 87.6241 175.614 87.368C175.359 87.1119 175.029 86.6714 174.88 86.3891C174.731 86.1067 174.552 85.6322 174.482 85.3347C174.412 85.0371 174.355 84.4327 174.355 83.9915C174.355 83.5503 174.411 82.9515 174.479 82.6607C174.547 82.37 174.713 81.9125 174.848 81.6441C174.983 81.3757 175.277 80.9513 175.5 80.7009C175.724 80.4506 176.131 80.1002 176.405 79.9223C176.679 79.7444 177.209 79.501 177.582 79.3814C178.021 79.2407 178.544 79.1476 179.063 79.1177C179.64 79.0844 180.064 79.1116 180.576 79.2147C180.967 79.2935 181.486 79.4485 181.729 79.5591L182.17 79.7602V80.7359C182.17 81.2726 182.153 81.7117 182.133 81.7117C182.112 81.7117 181.97 81.6371 181.816 81.5459C181.662 81.4547 181.368 81.3203 181.161 81.2473C180.955 81.1743 180.528 81.0776 180.211 81.0325C179.824 80.9774 179.452 80.9798 179.074 81.0399C178.766 81.089 178.323 81.2166 178.089 81.3234C177.856 81.4302 177.527 81.6397 177.358 81.7888C177.189 81.9379 176.938 82.2856 176.801 82.5614C176.647 82.8697 176.529 83.2688 176.494 83.598C176.454 83.9795 176.477 84.2885 176.575 84.6745C176.651 84.9723 176.804 85.3557 176.917 85.5266C177.029 85.6974 177.226 85.9389 177.355 86.0633C177.483 86.1876 177.833 86.4065 178.131 86.5497C178.565 86.7578 178.814 86.8175 179.373 86.8469C179.757 86.8672 180.307 86.8374 180.595 86.7805C180.884 86.7237 181.346 86.5829 181.624 86.4676C181.901 86.3522 182.175 86.2379 182.233 86.2134C182.314 86.1792 182.338 86.398 182.338 87.1519V88.135L181.978 88.2899C181.781 88.375 181.353 88.5053 181.029 88.5795C180.705 88.6536 180.081 88.7323 179.644 88.7543ZM199.024 88.7536C198.654 88.7758 198.114 88.7573 197.822 88.7126C197.531 88.6679 197.048 88.5385 196.748 88.4252C196.448 88.3118 195.995 88.0807 195.742 87.9115C195.488 87.7423 195.109 87.4086 194.9 87.1698C194.691 86.9311 194.408 86.5078 194.271 86.2291C194.134 85.9505 193.966 85.4565 193.897 85.1314C193.829 84.8063 193.773 84.2744 193.773 83.9493C193.773 83.6242 193.829 83.0922 193.897 82.7671C193.966 82.442 194.138 81.9377 194.28 81.6464C194.423 81.3551 194.74 80.8991 194.985 80.6331C195.231 80.3671 195.672 80.006 195.967 79.8306C196.261 79.6553 196.748 79.4351 197.048 79.3415C197.348 79.2478 197.935 79.1492 198.351 79.1223C198.875 79.0884 199.323 79.1143 199.806 79.2065C200.203 79.2823 200.783 79.4743 201.151 79.652C201.612 79.8747 201.957 80.1242 202.352 80.5214C202.721 80.893 202.991 81.261 203.162 81.6272C203.302 81.9291 203.469 82.385 203.531 82.6405C203.594 82.8959 203.644 83.5039 203.643 83.9915C203.642 84.659 203.596 85.0242 203.459 85.4692C203.358 85.7943 203.142 86.2882 202.978 86.5669C202.814 86.8455 202.486 87.2518 202.249 87.4697C202.013 87.6877 201.568 87.9979 201.262 88.1592C200.956 88.3204 200.478 88.511 200.201 88.5828C199.924 88.6545 199.394 88.7313 199.024 88.7536ZM198.655 86.8553C198.73 86.8592 198.993 86.8239 199.241 86.7767C199.488 86.7296 199.847 86.615 200.038 86.522C200.229 86.429 200.529 86.2111 200.704 86.0377C200.879 85.8644 201.119 85.5135 201.238 85.2581C201.4 84.9073 201.461 84.618 201.486 84.0759C201.514 83.4878 201.488 83.27 201.337 82.87C201.236 82.6014 201.032 82.2214 200.884 82.0256C200.709 81.7947 200.423 81.5721 200.071 81.3926C199.692 81.199 199.361 81.1004 198.971 81.0647C198.536 81.0248 198.286 81.0527 197.829 81.1919C197.42 81.3169 197.126 81.4751 196.848 81.7205C196.631 81.9132 196.364 82.2465 196.256 82.4612C196.148 82.6759 196.014 83.0726 195.959 83.3427C195.899 83.6327 195.882 84.0131 195.917 84.2715C195.949 84.5123 196.046 84.8992 196.132 85.1314C196.218 85.3636 196.406 85.6961 196.549 85.8703C196.692 86.0445 196.985 86.2906 197.2 86.4171C197.415 86.5436 197.8 86.6924 198.055 86.7477C198.311 86.803 198.581 86.8514 198.655 86.8553ZM221.636 88.7543C221.128 88.7761 220.428 88.7589 220.081 88.7159C219.735 88.6729 219.12 88.5427 218.715 88.4267C218.311 88.3106 217.725 88.0865 217.412 87.9286C217.1 87.7707 216.618 87.4693 216.341 87.2588C216.063 87.0483 215.693 86.7031 215.519 86.4918C215.344 86.2804 215.071 85.8869 214.911 85.6173C214.751 85.3477 214.528 84.8554 214.416 84.5233C214.303 84.1912 214.165 83.6335 214.109 83.2839C214.045 82.8863 214.024 82.2122 214.051 81.4834C214.083 80.6478 214.147 80.14 214.278 79.6874C214.378 79.3404 214.613 78.7611 214.8 78.4C214.993 78.0275 215.375 77.4891 215.682 77.1554C215.98 76.8319 216.484 76.394 216.801 76.1821C217.118 75.9702 217.639 75.6886 217.959 75.5562C218.279 75.4238 218.802 75.2442 219.122 75.1571C219.59 75.0295 219.997 74.999 221.216 75C222.522 75.001 222.83 75.0277 223.462 75.1948C223.866 75.3013 224.414 75.4778 224.681 75.5869L225.167 75.7852L225.19 76.8908C225.204 77.4988 225.2 77.9964 225.185 77.9964C225.17 77.9964 224.897 77.8649 224.579 77.7042C224.261 77.5435 223.658 77.328 223.239 77.2253C222.669 77.0856 222.223 77.0385 221.468 77.0384C220.772 77.0383 220.29 77.0839 219.913 77.1857C219.612 77.2668 219.088 77.4668 218.748 77.6301C218.326 77.8326 217.965 78.0924 217.613 78.4472C217.291 78.7714 216.993 79.181 216.82 79.5342C216.668 79.846 216.489 80.359 216.422 80.6742C216.356 80.9894 216.301 81.5322 216.301 81.8805C216.301 82.2289 216.357 82.7798 216.425 83.1049C216.493 83.43 216.68 83.9643 216.84 84.2922C217.037 84.6934 217.297 85.0462 217.636 85.3711C217.949 85.6703 218.374 85.9656 218.756 86.1478C219.095 86.3095 219.655 86.5018 220 86.5753C220.45 86.671 220.901 86.6975 221.594 86.669C222.203 86.644 222.709 86.5757 222.96 86.4846L223.36 86.3399V81.2894H225.547L225.503 87.9051L224.853 88.1419C224.495 88.2721 223.833 88.4542 223.382 88.5466C222.93 88.639 222.145 88.7325 221.636 88.7543ZM238.869 88.7537C238.499 88.7759 237.958 88.7574 237.667 88.7127C237.376 88.668 236.893 88.5386 236.593 88.4253C236.293 88.3119 235.841 88.0815 235.589 87.9133C235.337 87.7451 234.96 87.4176 234.753 87.1856C234.545 86.9535 234.261 86.5294 234.121 86.2431C233.981 85.9568 233.81 85.4566 233.742 85.1315C233.674 84.8064 233.617 84.252 233.616 83.8995C233.615 83.5373 233.686 82.9809 233.778 82.6199C233.867 82.2686 234.036 81.7909 234.154 81.5582C234.271 81.3255 234.572 80.9134 234.822 80.6424C235.072 80.3713 235.517 80.0061 235.812 79.8307C236.106 79.6553 236.593 79.4352 236.893 79.3416C237.193 79.2479 237.78 79.1488 238.198 79.1212C238.749 79.0849 239.153 79.1107 239.67 79.2149C240.061 79.294 240.666 79.4947 241.012 79.6608C241.466 79.8783 241.796 80.119 242.189 80.5206C242.533 80.8717 242.833 81.2819 242.999 81.6273C243.144 81.9291 243.314 82.3851 243.376 82.6405C243.439 82.896 243.489 83.5039 243.487 83.9916C243.485 84.5891 243.434 85.0433 243.333 85.3848C243.251 85.6635 243.063 86.1189 242.917 86.397C242.771 86.675 242.443 87.112 242.189 87.368C241.934 87.624 241.462 87.9728 241.138 88.143C240.815 88.3132 240.323 88.5111 240.046 88.5828C239.768 88.6545 239.239 88.7314 238.869 88.7537ZM238.785 86.8141C239.016 86.7909 239.385 86.7131 239.605 86.6412C239.845 86.563 240.186 86.3444 240.456 86.0971C240.733 85.843 240.983 85.5123 241.106 85.2387C241.273 84.8661 241.305 84.6561 241.306 83.9476C241.307 83.1612 241.287 83.0616 241.031 82.5384C240.879 82.2288 240.633 81.8721 240.484 81.7457C240.335 81.6193 240.019 81.4258 239.781 81.3158C239.543 81.2058 239.103 81.0928 238.803 81.0648C238.38 81.0251 238.128 81.0535 237.674 81.192C237.261 81.3181 236.971 81.475 236.685 81.7276C236.436 81.9478 236.192 82.2744 236.049 82.579C235.921 82.8507 235.79 83.2955 235.759 83.5674C235.725 83.8611 235.744 84.2617 235.803 84.5544C235.859 84.8254 235.974 85.1845 236.059 85.3524C236.143 85.5204 236.313 85.7776 236.436 85.924C236.559 86.0705 236.834 86.2931 237.047 86.4188C237.261 86.5444 237.644 86.6943 237.9 86.7518C238.155 86.8093 238.554 86.8374 238.785 86.8141ZM248.536 88.7932C248.351 88.7886 247.992 88.7503 247.737 88.7081C247.483 88.6659 247.043 88.5226 246.76 88.3897C246.477 88.2567 246.089 88.0061 245.898 87.8327C245.694 87.6478 245.43 87.2687 245.259 86.9156C245.098 86.5845 244.928 86.0666 244.882 85.7648C244.835 85.4629 244.796 84.0142 244.796 82.5454L244.795 79.8749L245.698 79.6499C246.195 79.5261 246.666 79.4057 246.743 79.3823C246.874 79.343 246.887 79.5774 246.912 82.3685L246.938 85.3972L247.191 85.8936C247.404 86.3109 247.516 86.4275 247.894 86.6262C248.265 86.8207 248.451 86.8625 248.944 86.8624C249.432 86.8624 249.641 86.8164 250.06 86.6174C250.373 86.4685 250.76 86.1834 251.047 85.8904L251.52 85.4084V79.8909L253.621 79.3697V88.5512H251.688V87.4435L251.289 87.7773C251.069 87.9609 250.686 88.2131 250.438 88.3377C250.19 88.4623 249.736 88.6176 249.429 88.6829C249.123 88.7482 248.721 88.7979 248.536 88.7932ZM144.511 88.7121C143.923 88.7097 143.392 88.6612 143.155 88.5879C142.941 88.5217 142.582 88.3439 142.357 88.1927C142.106 88.0241 141.847 87.7478 141.687 87.4778C141.543 87.2358 141.382 86.8209 141.329 86.556C141.27 86.2606 141.232 85.1326 141.232 83.6397V81.205H139.635V79.3474H141.232V76.5957L142.178 76.3656C142.698 76.2391 143.171 76.1363 143.229 76.1371C143.309 76.1384 143.334 76.5167 143.334 77.743V79.3474H146.612V81.205H143.334L143.336 83.506C143.337 85.6023 143.353 85.8391 143.501 86.1686C143.626 86.4448 143.75 86.5692 144.024 86.6945C144.277 86.8098 144.573 86.8593 145.018 86.8606C145.367 86.8616 145.859 86.8081 146.111 86.7418C146.364 86.6754 146.636 86.5954 146.717 86.5639C146.852 86.5114 146.864 86.5856 146.864 87.4412V88.3758L146.549 88.4597C146.376 88.5058 146.064 88.5823 145.856 88.6297C145.648 88.6771 145.043 88.7142 144.511 88.7121ZM109.374 88.5512V77.2364H104.918V75.2099H115.93V77.2364H111.559V88.5512H109.374ZM113.997 88.5512V79.3474H115.93V80.6491L116.288 80.3069C116.484 80.1187 116.761 79.8848 116.904 79.7871C117.046 79.6894 117.367 79.5287 117.616 79.43C117.866 79.3313 118.341 79.2199 118.673 79.1825C119.005 79.1451 119.375 79.1333 119.495 79.1563L119.713 79.1982V81.1844L118.978 81.2246C118.511 81.2502 118.071 81.3313 117.773 81.4467C117.515 81.5468 117.14 81.7693 116.94 81.9413C116.74 82.1133 116.469 82.4244 116.338 82.6327L116.098 83.0113V88.5512L113.997 88.5512ZM150.727 88.5512C149.703 88.5512 149.543 88.5335 149.585 88.4244C149.612 88.3547 150.873 85.352 152.389 81.7517L155.145 75.2058L157.633 75.2521L160.362 81.7539C161.862 85.3298 163.112 88.3232 163.138 88.4058C163.182 88.5456 163.103 88.5543 161.996 88.5324L160.807 88.509L159.673 85.7225L153.104 85.6783L152.666 86.7559C152.425 87.3485 152.158 87.9949 152.073 88.1923L151.918 88.5512L150.727 88.5512ZM156.363 83.6537C157.704 83.6537 158.801 83.6275 158.801 83.5955C158.801 83.5635 158.295 82.3001 157.676 80.7879C157.057 79.2758 156.525 77.9531 156.494 77.8486C156.462 77.7441 156.401 77.6586 156.358 77.6586C156.315 77.6586 156.279 77.6982 156.279 77.7465C156.279 77.7949 155.75 79.1259 155.103 80.7044C154.455 82.2828 153.926 83.5921 153.926 83.614C153.926 83.6359 155.023 83.6537 156.363 83.6537ZM164.265 88.5512V79.3474H166.114V80.51L166.47 80.1833C166.666 80.0036 167.038 79.7432 167.297 79.6046C167.556 79.466 167.99 79.2945 168.262 79.2234C168.533 79.1522 168.984 79.0946 169.263 79.0953C169.543 79.096 170.009 79.1528 170.299 79.2216C170.59 79.2904 170.981 79.4255 171.169 79.5219C171.357 79.6183 171.683 79.8559 171.893 80.05C172.103 80.2441 172.362 80.5424 172.47 80.7129C172.577 80.8834 172.742 81.2526 172.836 81.5335C172.997 82.0121 173.007 82.2477 173.007 85.2976V88.5512H170.906L170.905 85.5325C170.904 82.5303 170.903 82.5115 170.704 82.0817C170.594 81.8441 170.376 81.5522 170.221 81.4331C170.065 81.314 169.825 81.1718 169.686 81.117C169.548 81.0622 169.18 81.016 168.869 81.0143C168.401 81.0118 168.211 81.0571 167.769 81.2757C167.442 81.437 167.065 81.7195 166.8 82.0008L166.366 82.4615V88.5512L164.265 88.5512ZM183.682 88.5512L183.725 76.6184L184.608 76.3793C185.093 76.2478 185.557 76.1399 185.638 76.1395C185.774 76.1388 185.785 76.2932 185.785 78.2069V80.2751L186.176 79.9753C186.391 79.8105 186.711 79.6016 186.887 79.5111C187.064 79.4207 187.446 79.2904 187.736 79.2216C188.027 79.1528 188.458 79.096 188.694 79.0953C188.931 79.0947 189.328 79.1329 189.577 79.1803C189.825 79.2277 190.256 79.3733 190.534 79.5038C190.812 79.6344 191.217 79.9198 191.434 80.1381C191.651 80.3563 191.943 80.7712 192.083 81.06C192.223 81.3487 192.375 81.832 192.422 82.1339C192.47 82.4357 192.508 84.0031 192.509 85.617L192.51 88.5512H190.42L190.393 85.5325C190.368 82.6629 190.358 82.4951 190.188 82.1339C190.09 81.9249 189.901 81.6514 189.768 81.5262C189.635 81.4009 189.375 81.2343 189.19 81.156C188.99 81.0716 188.628 81.0131 188.299 81.0125C187.879 81.0116 187.63 81.0645 187.266 81.2319C186.977 81.3646 186.587 81.6529 186.286 81.9553L185.785 82.4581V88.5512H183.682ZM205.371 88.5512V79.3474H207.22V80.6674L207.637 80.264C207.866 80.0421 208.236 79.7675 208.46 79.6537C208.683 79.5398 209.073 79.3886 209.325 79.3177C209.577 79.2467 209.973 79.1801 210.204 79.1697C210.435 79.1593 210.729 79.1571 210.856 79.1646L211.087 79.1784V81.1819L210.302 81.2232C209.697 81.2549 209.408 81.3145 209.042 81.4827C208.781 81.6028 208.436 81.802 208.275 81.9254C208.114 82.0488 207.867 82.3236 207.727 82.5362L207.472 82.9227V88.5511L205.371 88.5512ZM227.479 88.5512V79.3474H229.328L229.33 80.7406L229.555 80.4545C229.678 80.2971 230.006 80.021 230.283 79.841C230.56 79.661 231.017 79.4424 231.298 79.3553C231.579 79.2681 232.017 79.188 232.271 79.1772C232.525 79.1664 232.837 79.1623 232.964 79.168L233.195 79.1784V81.1819L232.41 81.2231C231.796 81.2554 231.517 81.3139 231.128 81.4925C230.855 81.618 230.504 81.8421 230.348 81.9905C230.192 82.1389 229.955 82.4086 229.822 82.5897L229.58 82.919V88.5511L227.479 88.5512Z" fill="#181F25"/>
</svg>
