<svg width="140" height="140" viewBox="0 0 140 140" fill="none" xmlns="http://www.w3.org/2000/svg">
<path d="M69.9995 5.59997C69.9995 2.50719 72.5108 -0.0232835 75.5936 0.223876C84.7044 0.954295 93.6028 3.46368 101.779 7.62951C109.955 11.7953 117.215 17.5194 123.161 24.4607C125.173 26.8096 124.602 30.3286 122.1 32.1465L97.7487 49.8387C96.4976 50.7477 94.7556 50.4608 93.7392 49.2954C91.0981 46.267 87.8958 43.7652 84.3002 41.9331C76.9957 38.2113 69.9995 31.854 69.9995 23.656V5.59997Z" fill="#29BF86"/>
<path d="M126.861 39.7657C129.592 38.3138 133.005 39.343 134.234 42.1811C135.665 45.4835 136.838 48.8913 137.744 52.3741C138.523 55.3672 136.467 58.2796 133.421 58.8167L109.684 63.0022C104.9 63.8458 100.442 60.5589 98.3123 56.1924C98.0462 55.6465 98.2472 54.9802 98.7833 54.6951L126.861 39.7657Z" fill="#29BF86"/>
<path d="M45.875 129.71C44.7164 132.578 41.4401 133.983 38.6743 132.599C30.5006 128.509 23.1901 122.849 17.1701 115.924C11.1501 108.998 6.56248 100.971 3.64967 92.3079C2.66403 89.3764 4.51183 86.3275 7.51274 85.5793L25.0325 81.2112C32.987 79.2279 40.8479 84.4783 46.2263 90.6654C48.8738 93.711 52.076 96.2129 55.6534 98.0429C57.0301 98.7472 57.7299 100.368 57.1506 101.802L45.875 129.71Z" fill="#8F40D4"/>
<path d="M134.36 67.7521C137.451 67.6441 140.068 70.0655 139.928 73.1552C139.516 82.2858 137.319 91.2664 133.441 99.5827C129.563 107.899 124.096 115.355 117.366 121.54C115.089 123.632 111.552 123.184 109.648 120.747L91.1169 97.0282C90.1649 95.8097 90.3908 94.0587 91.52 93.0022C94.4544 90.257 96.8429 86.9694 98.5484 83.312C102.013 75.8821 108.122 68.6683 116.315 68.3822L134.36 67.7521Z" fill="#4995F2"/>
<path d="M74.4922 134.243C74.7079 137.328 72.3794 140.028 69.2868 139.996C65.6882 139.96 62.0978 139.646 58.5475 139.057C55.4964 138.551 53.672 135.488 54.4202 132.487L62.1134 101.631C62.2603 101.042 62.8582 100.686 63.4522 100.812C68.2042 101.822 72.4719 105.352 72.8108 110.198L74.4922 134.243Z" fill="#8F40D4"/>
<path d="M25.2641 23.6745C23.1157 21.4497 23.1642 17.8851 25.5536 15.9213C28.3338 13.6363 31.2862 11.569 34.3843 9.73796C37.0468 8.16436 40.4131 9.33792 41.7689 12.1177L54.9639 39.1713C55.6417 40.5612 55.0567 42.2269 53.7325 43.0255C52.5058 43.7653 51.3309 44.5879 50.2162 45.4876C49.0128 46.4589 47.2475 46.4389 46.1732 45.3265L25.2641 23.6745Z" fill="#FFBB00"/>
<path d="M50.0991 8.75184C49.1434 5.81043 50.7497 2.62783 53.7581 1.91022C54.212 1.80193 54.6671 1.69819 55.1231 1.599C58.1452 0.941713 60.9723 3.11357 61.3859 6.17856L65.1124 33.7881C65.4847 36.5466 63.5311 39.0457 60.8671 39.8527C60.5341 39.9536 60.1786 39.7732 60.0711 39.4423L50.0991 8.75184Z" fill="#FFBB00"/>
<path d="M9.48394 47.9739C6.57768 46.9161 5.05867 43.691 6.34534 40.8785C7.84251 37.6059 9.58985 34.4537 11.5718 31.4498C13.275 28.8683 16.8151 28.4474 19.2522 30.3515L42.9713 48.8828C44.1898 49.8349 44.3942 51.5885 43.5541 52.8868C42.7758 54.0895 42.0805 55.3439 41.473 56.6412C40.8172 58.0416 39.2217 58.7976 37.7686 58.2687L9.48394 47.9739Z" fill="#FFBB00"/>
<path d="M5.95277 76.7312C2.87693 77.0545 0.0978283 74.8216 0.021385 71.7297C-0.0675651 68.132 0.121063 64.5328 0.585587 60.9641C0.984797 57.8972 3.98207 55.9671 7.00727 56.6101L38.1127 63.2218C38.7067 63.348 39.0836 63.9332 38.9782 64.5312C38.1348 69.3155 34.7557 73.7039 29.9242 74.2117L5.95277 76.7312Z" fill="#FFBB00"/>
<path d="M102.2 125.771C103.746 128.45 102.836 131.897 100.043 133.224C96.7925 134.769 93.4277 136.06 89.9786 137.088C87.0145 137.97 84.0321 136.017 83.3891 132.992L78.3777 109.415C77.3676 104.663 80.497 100.094 84.7866 97.8131C85.3228 97.528 85.9957 97.7056 86.2994 98.2315L102.2 125.771Z" fill="#4995F2"/>
</svg>
