<svg width="140" height="48" viewBox="0 0 140 48" fill="none" xmlns="http://www.w3.org/2000/svg">
<path d="M1.05495 36.1991C0.472316 36.1991 0 35.7268 0 35.1442V1.05495C0 0.472315 0.472315 0 1.05495 0H12.1382C12.6306 0 13.0574 0.340541 13.1668 0.820566L20.0761 31.1422C20.1298 31.3778 20.3393 31.5449 20.5809 31.5449C20.8669 31.5449 21.0987 31.3131 21.0987 31.0272V1.05495C21.0987 0.472315 21.571 0 22.1537 0H26.7664C27.349 0 27.8213 0.472315 27.8213 1.05495V35.1442C27.8213 35.7268 27.349 36.1991 26.7664 36.1991H15.6831C15.1908 36.1991 14.7639 35.8586 14.6545 35.3785L7.74522 5.05691C7.69154 4.82131 7.48203 4.65417 7.2404 4.65417C6.95444 4.65417 6.72263 4.88598 6.72263 5.17194V35.1442C6.72263 35.7268 6.25031 36.1991 5.66768 36.1991H1.05495Z" fill="#F5F6F7"/>
<path d="M46.5372 36.9231C43.9861 36.9231 41.728 36.3887 39.7629 35.32C37.8323 34.2168 36.3154 32.6826 35.2122 30.7175C34.1435 28.718 33.6091 26.3736 33.6091 23.6846V23.064C33.6091 20.3749 34.1435 18.0478 35.2122 16.0827C36.2809 14.0832 37.7806 12.549 39.7112 11.4803C41.6418 10.3771 43.8826 9.82547 46.4338 9.82547C48.9505 9.82547 51.1396 10.3943 53.0013 11.532C54.8629 12.6352 56.3109 14.1866 57.3451 16.1862C58.3794 18.1513 58.8965 20.4439 58.8965 23.064V24.2327C58.8965 24.8153 58.4242 25.2877 57.8416 25.2877H41.3254C40.7266 25.2877 40.2375 25.7891 40.3541 26.3765C40.6061 27.6461 41.2192 28.7139 42.1934 29.5798C43.4345 30.6831 44.9514 31.2347 46.7441 31.2347C48.5713 31.2347 49.9158 30.8382 50.7777 30.0453C51.3426 29.5255 51.8186 28.9688 52.2058 28.375C52.5349 27.8702 53.1895 27.6421 53.7232 27.9219L57.1244 29.7051C57.6445 29.9778 57.8433 30.6241 57.5194 31.1139C57.0967 31.7532 56.5732 32.4312 55.9489 33.148C55.0526 34.1823 53.8459 35.0787 52.329 35.8371C50.8121 36.5611 48.8815 36.9231 46.5372 36.9231ZM40.5847 19.2257C40.3665 19.8383 40.8703 20.4266 41.5206 20.4266H51.1197C51.7409 20.4266 52.2391 19.8866 52.064 19.2905C51.7799 18.3236 51.2477 17.5129 50.4674 16.8584C49.4331 15.9621 48.0714 15.5139 46.3821 15.5139C44.6239 15.5139 43.2276 15.9621 42.1934 16.8584C41.4552 17.4982 40.9189 18.2873 40.5847 19.2257Z" fill="#F5F6F7"/>
<path d="M74.4697 36.6128C72.4701 36.6128 70.7119 36.1646 69.195 35.2683C67.7126 34.3374 66.5576 33.0618 65.7302 31.4415C64.9028 29.8212 64.4891 27.9595 64.4891 25.8565V11.6044C64.4891 11.0218 64.9615 10.5495 65.5441 10.5495H69.95C70.5326 10.5495 71.0049 11.0218 71.0049 11.6044V25.3394C71.0049 27.27 71.4703 28.718 72.4012 29.6833C73.3665 30.6486 74.7282 31.1312 76.4864 31.1312C78.486 31.1312 80.0374 30.4762 81.1406 29.1661C82.2438 27.8216 82.7954 25.9599 82.7954 23.5811V11.6044C82.7954 11.0218 83.2677 10.5495 83.8503 10.5495H88.2562C88.8388 10.5495 89.3111 11.0218 89.3111 11.6044V35.1442C89.3111 35.7268 88.8388 36.1991 88.2562 36.1991H83.9537C83.3711 36.1991 82.8988 35.7268 82.8988 35.1442V33.4091C82.8988 33.0935 82.643 32.8378 82.3275 32.8378C82.1077 32.8378 81.9101 32.9653 81.799 33.1549C81.3581 33.9071 80.6387 34.646 79.6409 35.3717C78.5032 36.1991 76.7795 36.6128 74.4697 36.6128Z" fill="#F5F6F7"/>
<path d="M97.6167 36.1991C97.0341 36.1991 96.5618 35.7268 96.5618 35.1442V11.6044C96.5618 11.0218 97.0341 10.5495 97.6168 10.5495H101.919C102.502 10.5495 102.974 11.0218 102.974 11.6044V12.8973C102.974 13.2 103.22 13.4454 103.522 13.4454C103.752 13.4454 103.955 13.3005 104.049 13.0908C104.434 12.236 105.006 11.5957 105.767 11.17C106.663 10.6874 107.697 10.446 108.869 10.446H110.917C111.5 10.446 111.972 10.9183 111.972 11.501V15.1829C111.972 15.7656 111.5 16.2379 110.917 16.2379H108.766C107.111 16.2379 105.749 16.6861 104.681 17.5824C103.612 18.4443 103.078 19.7888 103.078 21.616V35.1442C103.078 35.7268 102.605 36.1991 102.023 36.1991H97.6167Z" fill="#F5F6F7"/>
<path d="M126.478 11.6044C126.478 11.0218 126.951 10.5451 127.532 10.5916C129.248 10.7292 130.924 11.202 132.464 11.9867C134.005 12.7715 135.372 13.8498 136.492 15.1575C136.872 15.5999 136.764 16.2629 136.293 16.6053L131.705 19.9383C131.469 20.1095 131.141 20.0555 130.95 19.8359C130.452 19.2654 129.849 18.7941 129.172 18.449C127.796 17.7478 126.478 16.5502 126.478 15.0059V11.6044Z" fill="#FBB040"/>
<path d="M137.189 18.0407C137.704 17.7672 138.347 17.9611 138.578 18.4957C138.848 19.1178 139.069 19.7598 139.24 20.4159C139.386 20.9798 138.999 21.5284 138.425 21.6296L133.954 22.4181C133.052 22.577 132.212 21.9578 131.811 21.1352C131.761 21.0324 131.799 20.9069 131.9 20.8531L137.189 18.0407Z" fill="#FBB040"/>
<path d="M121.933 34.9847C121.715 35.5249 121.098 35.7897 120.576 35.529C119.037 34.7585 117.66 33.6922 116.525 32.3876C115.391 31.083 114.527 29.5708 113.978 27.9388C113.793 27.3865 114.141 26.8122 114.706 26.6712L118.007 25.8483C119.505 25.4747 120.986 26.4638 121.999 27.6294C122.498 28.2031 123.101 28.6744 123.775 29.0192C124.034 29.1519 124.166 29.4572 124.057 29.7273L121.933 34.9847Z" fill="#8F40D4"/>
<path d="M138.602 23.3129C139.184 23.2925 139.677 23.7487 139.651 24.3307C139.573 26.0508 139.16 27.7426 138.429 29.3093C137.698 30.8759 136.669 32.2805 135.401 33.4456C134.972 33.8398 134.305 33.7554 133.947 33.2963L130.456 28.828C130.276 28.5985 130.319 28.2686 130.532 28.0696C131.085 27.5524 131.534 26.9331 131.856 26.2441C132.508 24.8444 133.659 23.4855 135.203 23.4316L138.602 23.3129Z" fill="#007FB2"/>
<path d="M127.324 35.8386C127.365 36.4198 126.926 36.9283 126.343 36.9224C125.665 36.9155 124.989 36.8563 124.32 36.7454C123.745 36.6501 123.402 36.0731 123.543 35.5078L124.992 29.6951C125.02 29.5841 125.132 29.5169 125.244 29.5407C126.139 29.731 126.943 30.396 127.007 31.3089L127.324 35.8386Z" fill="#8F40D4"/>
<path d="M118.05 15.0093C117.645 14.5902 117.655 13.9187 118.105 13.5488C118.628 13.1183 119.185 12.7289 119.768 12.3839C120.27 12.0875 120.904 12.3086 121.159 12.8322L123.645 17.9287C123.773 18.1905 123.663 18.5043 123.413 18.6547C123.182 18.7941 122.961 18.9491 122.751 19.1186C122.524 19.3015 122.191 19.2978 121.989 19.0882L118.05 15.0093Z" fill="#FFBB00"/>
<path d="M122.729 12.1982C122.549 11.6441 122.851 11.0445 123.418 10.9093C123.504 10.8889 123.589 10.8694 123.675 10.8507C124.244 10.7269 124.777 11.136 124.855 11.7134L125.557 16.9146C125.627 17.4343 125.259 17.905 124.757 18.0571C124.694 18.0761 124.628 18.0421 124.607 17.9798L122.729 12.1982Z" fill="#FFBB00"/>
<path d="M115.077 19.5869C114.53 19.3877 114.244 18.7801 114.486 18.2503C114.768 17.6338 115.097 17.0399 115.471 16.474C115.792 15.9877 116.459 15.9084 116.918 16.2671L121.386 19.7581C121.615 19.9375 121.654 20.2679 121.496 20.5124C121.349 20.739 121.218 20.9753 121.104 21.2197C120.98 21.4835 120.68 21.6259 120.406 21.5263L115.077 19.5869Z" fill="#FFBB00"/>
<path d="M114.412 25.0044C113.833 25.0653 113.309 24.6447 113.295 24.0622C113.278 23.3845 113.314 22.7064 113.401 22.0341C113.476 21.4564 114.041 21.0928 114.611 21.2139L120.471 22.4594C120.583 22.4832 120.654 22.5935 120.634 22.7061C120.475 23.6074 119.838 24.4341 118.928 24.5298L114.412 25.0044Z" fill="#FFBB00"/>
<path d="M132.544 34.2428C132.835 34.7474 132.664 35.3967 132.137 35.6468C131.525 35.9377 130.891 36.1811 130.241 36.3746C129.683 36.5409 129.121 36.1729 129 35.603L128.056 31.1616C127.866 30.2664 128.455 29.4055 129.263 28.9759C129.364 28.9222 129.491 28.9556 129.548 29.0547L132.544 34.2428Z" fill="#007FB2"/>
<path d="M134.477 48V41.8536H135.452V42.5493L135.685 42.3329C135.813 42.2138 136.051 42.0493 136.214 41.9673C136.383 41.8822 136.649 41.7946 136.834 41.7633C137.02 41.7318 137.3 41.7196 137.491 41.7346C137.674 41.749 137.943 41.8018 138.087 41.8519C138.231 41.9021 138.432 41.9915 138.532 42.0506C138.633 42.1098 138.83 42.2748 138.971 42.4174C139.129 42.5779 139.284 42.7954 139.378 42.9888C139.462 43.1606 139.56 43.4206 139.597 43.5666C139.635 43.7171 139.664 44.0264 139.664 44.281C139.664 44.5369 139.635 44.8441 139.597 44.9954C139.56 45.1414 139.468 45.3874 139.393 45.5421C139.318 45.6967 139.137 45.9526 138.989 46.1106C138.788 46.3274 138.633 46.4416 138.362 46.5756C138.103 46.7033 137.903 46.7667 137.65 46.8011C137.457 46.8274 137.178 46.8353 137.029 46.8186C136.881 46.802 136.64 46.7486 136.494 46.7C136.348 46.6515 136.158 46.5687 136.073 46.516C135.988 46.4634 135.843 46.3526 135.751 46.2697L135.585 46.119V48H134.477ZM137.204 45.8335C137.301 45.8208 137.452 45.7922 137.539 45.77C137.626 45.7478 137.792 45.6661 137.909 45.5885C138.025 45.5109 138.188 45.3453 138.27 45.2205C138.353 45.0957 138.453 44.8634 138.493 44.7042C138.543 44.5101 138.558 44.3257 138.542 44.1445C138.528 43.9959 138.473 43.7565 138.419 43.6126C138.355 43.4411 138.251 43.2805 138.117 43.1466C138.005 43.0342 137.838 42.9066 137.746 42.863C137.654 42.8195 137.47 42.7608 137.336 42.7328C137.148 42.6932 137.032 42.6946 136.819 42.7389C136.667 42.7703 136.467 42.8354 136.373 42.8835C136.279 42.9316 136.12 43.0452 136.019 43.136C135.919 43.2268 135.78 43.3902 135.711 43.4991C135.59 43.6904 135.585 43.7169 135.585 44.2747C135.585 44.844 135.587 44.8552 135.722 45.0664C135.797 45.1843 135.928 45.3412 136.012 45.4152C136.096 45.4893 136.248 45.5939 136.351 45.6478C136.454 45.7016 136.648 45.7707 136.782 45.8012C136.917 45.8317 137.106 45.8462 137.204 45.8335ZM65.3735 46.8364C65.3003 46.8337 65.1376 46.8143 65.0119 46.7932C64.8863 46.7721 64.6718 46.7129 64.5354 46.6617C64.389 46.6066 64.1912 46.4801 64.0526 46.3529C63.9235 46.2343 63.7644 46.0388 63.6992 45.9184C63.634 45.7981 63.55 45.5816 63.5126 45.4374C63.458 45.2268 63.4447 44.8775 63.4447 43.6578V42.1403L64.5532 41.8654V43.388C64.5532 44.6572 64.5651 44.9509 64.6245 45.1525C64.6727 45.3158 64.7494 45.4457 64.8604 45.552C64.9508 45.6387 65.1056 45.7339 65.2043 45.7636C65.303 45.7933 65.4955 45.8176 65.6319 45.8176C65.7756 45.8176 65.985 45.7781 66.1293 45.7239C66.2947 45.6617 66.4704 45.5435 66.6519 45.3721L66.9254 45.114L66.9698 42.1486L67.4575 42.0245C67.7258 41.9563 67.9702 41.8999 68.0007 41.8993C68.0444 41.8984 68.0561 42.4082 68.0561 44.3032V46.7084H67.0806V46.1234L66.8257 46.3245C66.6854 46.435 66.4566 46.5761 66.3172 46.638C66.1778 46.6999 65.9384 46.7709 65.7851 46.7959C65.6319 46.8209 65.4466 46.8391 65.3735 46.8364ZM71.1376 46.8144C70.8937 46.8262 70.5645 46.8192 70.406 46.7988C70.2475 46.7785 69.9881 46.7282 69.8296 46.6872C69.6711 46.6462 69.4266 46.5613 69.2864 46.4985L69.0315 46.3844V45.8746C69.0315 45.5942 69.0464 45.3715 69.0647 45.3796C69.0829 45.3878 69.2296 45.4592 69.3905 45.5383C69.5515 45.6174 69.8508 45.7225 70.0556 45.7718C70.3045 45.8317 70.5809 45.8616 70.8885 45.8618C71.1418 45.862 71.4254 45.8391 71.5188 45.811C71.6122 45.7829 71.7326 45.7129 71.7863 45.6555C71.8421 45.5959 71.8839 45.4939 71.8839 45.4177C71.8839 45.3443 71.8457 45.2418 71.799 45.1899C71.7523 45.138 71.6384 45.0567 71.546 45.0094C71.4536 44.962 71.0519 44.816 70.6532 44.6849C70.2545 44.5538 69.8333 44.3906 69.7172 44.3223C69.601 44.2539 69.4366 44.1282 69.3518 44.043C69.2669 43.9578 69.1578 43.7979 69.1093 43.6877C69.0557 43.5662 69.0191 43.3804 69.0162 43.216C69.0135 43.0668 69.0387 42.8485 69.0721 42.7309C69.1097 42.5986 69.2074 42.4337 69.3281 42.2989C69.4355 42.1789 69.6276 42.0295 69.7551 41.9669C69.8825 41.9043 70.136 41.821 70.3183 41.782C70.5586 41.7305 70.7779 41.7176 71.1154 41.7353C71.3714 41.7488 71.7306 41.7993 71.9135 41.8476C72.0964 41.8959 72.3408 41.9781 72.4566 42.0302L72.6673 42.125V42.6129C72.6673 42.8812 72.6566 43.1007 72.6436 43.1007C72.6307 43.1007 72.5259 43.0529 72.4109 42.9944C72.2958 42.936 72.062 42.8444 71.8913 42.7908C71.7206 42.7373 71.4014 42.6825 71.1819 42.6691C70.9327 42.6539 70.7094 42.6648 70.5874 42.6981C70.4799 42.7276 70.3353 42.8086 70.2659 42.8782C70.1864 42.9581 70.1399 43.0516 70.1399 43.1319C70.1399 43.2018 70.1713 43.304 70.2095 43.3588C70.2478 43.4137 70.3725 43.5055 70.4866 43.5629C70.6007 43.6202 71.014 43.7693 71.405 43.8943C71.8962 44.0513 72.2004 44.1764 72.3897 44.2993C72.5403 44.3971 72.7231 44.5597 72.7959 44.6607C72.8701 44.7636 72.9511 44.9545 72.9802 45.0953C73.0088 45.2334 73.0208 45.4423 73.007 45.5597C72.9932 45.677 72.9442 45.8584 72.8982 45.9628C72.8522 46.0672 72.7491 46.2184 72.669 46.2989C72.5889 46.3793 72.4297 46.4929 72.3151 46.5512C72.2005 46.6095 71.9884 46.6878 71.8438 46.7251C71.6992 46.7624 71.3815 46.8026 71.1376 46.8144ZM94.4361 46.8155C94.2055 46.8271 93.9171 46.8203 93.7952 46.8002C93.6732 46.7802 93.4837 46.7395 93.3739 46.7097C93.2642 46.6799 93.0348 46.5822 92.8642 46.4927C92.6934 46.403 92.4442 46.2193 92.3099 46.0842C92.1757 45.9492 92.0016 45.7168 91.9229 45.5679C91.8442 45.4189 91.7498 45.1687 91.713 45.0117C91.6761 44.8548 91.646 44.5359 91.646 44.3032C91.646 44.0705 91.6754 43.7546 91.7114 43.6013C91.7474 43.4479 91.8351 43.2066 91.9062 43.065C91.9774 42.9235 92.1322 42.6996 92.2503 42.5675C92.3683 42.4355 92.5831 42.2507 92.7275 42.1568C92.8719 42.063 93.1513 41.9346 93.3483 41.8715C93.58 41.7973 93.8557 41.7482 94.1293 41.7324C94.4337 41.7149 94.6573 41.7292 94.9274 41.7836C95.1338 41.8252 95.4074 41.9069 95.5355 41.9652L95.7682 42.0713V42.586C95.7682 42.8691 95.7593 43.1007 95.7486 43.1007C95.7378 43.1007 95.6626 43.0613 95.5815 43.0132C95.5003 42.9651 95.345 42.8943 95.2363 42.8557C95.1276 42.8172 94.902 42.7662 94.735 42.7424C94.5308 42.7134 94.3344 42.7146 94.1354 42.7463C93.9727 42.7722 93.7388 42.8395 93.6158 42.8959C93.4927 42.9522 93.3191 43.0627 93.2299 43.1414C93.1407 43.22 93.0085 43.4034 92.9361 43.5489C92.8552 43.7115 92.793 43.922 92.7745 44.0956C92.753 44.2969 92.7653 44.4599 92.817 44.6635C92.8569 44.8205 92.9381 45.0228 92.9973 45.1129C93.0566 45.2031 93.1605 45.3304 93.2284 45.396C93.2962 45.4616 93.4805 45.5771 93.6379 45.6526C93.8666 45.7624 93.9982 45.7939 94.2928 45.8094C94.4955 45.8201 94.7858 45.8043 94.9377 45.7743C95.0897 45.7444 95.3337 45.6701 95.4801 45.6093C95.6264 45.5485 95.771 45.4881 95.8015 45.4752C95.844 45.4572 95.8569 45.5726 95.8569 45.9703V46.4888L95.6672 46.5705C95.5629 46.6154 95.3375 46.6842 95.1664 46.7233C94.9953 46.7623 94.6666 46.8039 94.4361 46.8155ZM104.658 46.8151C104.463 46.8268 104.178 46.8171 104.025 46.7935C103.871 46.7699 103.616 46.7017 103.458 46.6419C103.3 46.5821 103.061 46.4601 102.927 46.3709C102.793 46.2817 102.593 46.1056 102.483 45.9797C102.373 45.8538 102.223 45.6305 102.151 45.4835C102.079 45.3365 101.99 45.076 101.954 44.9045C101.918 44.733 101.889 44.4524 101.889 44.2809C101.889 44.1095 101.918 43.8289 101.954 43.6574C101.99 43.4859 102.081 43.2199 102.156 43.0662C102.231 42.9126 102.399 42.6721 102.528 42.5318C102.657 42.3915 102.89 42.201 103.046 42.1085C103.201 42.016 103.458 41.8999 103.616 41.8505C103.774 41.8011 104.084 41.749 104.303 41.7348C104.58 41.717 104.816 41.7306 105.071 41.7793C105.28 41.8192 105.586 41.9205 105.78 42.0143C106.024 42.1317 106.205 42.2633 106.414 42.4728C106.609 42.6688 106.751 42.863 106.841 43.0561C106.915 43.2153 107.003 43.4559 107.036 43.5906C107.069 43.7253 107.095 44.046 107.095 44.3032C107.094 44.6553 107.07 44.8479 106.997 45.0827C106.945 45.2541 106.83 45.5147 106.744 45.6617C106.657 45.8086 106.484 46.0229 106.36 46.1379C106.235 46.2528 106 46.4165 105.839 46.5015C105.677 46.5866 105.425 46.6872 105.279 46.725C105.133 46.7628 104.853 46.8034 104.658 46.8151ZM104.464 45.8138C104.503 45.8159 104.642 45.7972 104.773 45.7723C104.903 45.7475 105.092 45.687 105.193 45.638C105.294 45.589 105.452 45.474 105.545 45.3826C105.637 45.2911 105.764 45.106 105.826 44.9713C105.912 44.7863 105.944 44.6337 105.957 44.3478C105.972 44.0375 105.958 43.9227 105.878 43.7116C105.825 43.57 105.718 43.3696 105.639 43.2662C105.547 43.1445 105.396 43.027 105.211 42.9324C105.011 42.8303 104.836 42.7782 104.63 42.7594C104.401 42.7384 104.269 42.7531 104.028 42.8265C103.812 42.8924 103.657 42.9759 103.511 43.1054C103.396 43.207 103.255 43.3828 103.198 43.496C103.141 43.6093 103.071 43.8185 103.041 43.961C103.01 44.114 103.001 44.3146 103.019 44.4509C103.036 44.5779 103.088 44.782 103.133 44.9045C103.178 45.027 103.277 45.2024 103.353 45.2943C103.428 45.3861 103.583 45.5159 103.696 45.5827C103.809 45.6494 104.012 45.7279 104.147 45.757C104.282 45.7862 104.425 45.8118 104.464 45.8138ZM116.586 46.8155C116.317 46.827 115.948 46.8179 115.765 46.7952C115.583 46.7725 115.258 46.7039 115.045 46.6427C114.832 46.5814 114.522 46.4632 114.358 46.3799C114.193 46.2966 113.939 46.1376 113.792 46.0266C113.646 45.9156 113.451 45.7335 113.359 45.622C113.267 45.5105 113.123 45.303 113.038 45.1608C112.954 45.0186 112.836 44.7589 112.777 44.5837C112.718 44.4085 112.645 44.1144 112.615 43.93C112.582 43.7203 112.57 43.3647 112.585 42.9803C112.602 42.5395 112.635 42.2717 112.704 42.0329C112.757 41.8499 112.881 41.5443 112.98 41.3539C113.082 41.1574 113.283 40.8734 113.445 40.6974C113.602 40.5268 113.868 40.2957 114.035 40.184C114.203 40.0722 114.477 39.9237 114.646 39.8538C114.815 39.784 115.091 39.6892 115.259 39.6433C115.506 39.576 115.721 39.5599 116.364 39.5604C117.053 39.561 117.215 39.5751 117.549 39.6632C117.762 39.7194 118.051 39.8125 118.192 39.87L118.448 39.9746L118.46 40.5578C118.467 40.8785 118.466 41.1409 118.458 41.1409C118.45 41.1409 118.306 41.0716 118.138 40.9868C117.97 40.9021 117.652 40.7884 117.431 40.7342C117.13 40.6606 116.895 40.6357 116.497 40.6357C116.13 40.6356 115.875 40.6597 115.677 40.7133C115.518 40.7561 115.242 40.8616 115.062 40.9478C114.84 41.0546 114.649 41.1916 114.464 41.3788C114.294 41.5498 114.136 41.7658 114.045 41.9521C113.965 42.1166 113.87 42.3872 113.835 42.5534C113.8 42.7197 113.772 43.006 113.772 43.1897C113.772 43.3735 113.801 43.6641 113.837 43.8356C113.873 44.007 113.971 44.2888 114.056 44.4618C114.16 44.6735 114.297 44.8596 114.476 45.0309C114.641 45.1888 114.865 45.3445 115.067 45.4406C115.245 45.5259 115.541 45.6274 115.723 45.6661C115.96 45.7166 116.198 45.7306 116.563 45.7155C116.885 45.7023 117.151 45.6663 117.284 45.6183L117.495 45.542V42.878H118.648L118.625 46.3675L118.282 46.4924C118.094 46.5611 117.744 46.6572 117.506 46.7059C117.268 46.7546 116.854 46.8039 116.586 46.8155ZM125.675 46.8151C125.48 46.8269 125.195 46.8171 125.042 46.7935C124.888 46.7699 124.633 46.7017 124.475 46.6419C124.317 46.5821 124.078 46.4606 123.945 46.3719C123.812 46.2831 123.614 46.1104 123.504 45.988C123.395 45.8656 123.245 45.6419 123.171 45.4909C123.097 45.3399 123.007 45.076 122.971 44.9045C122.935 44.7331 122.905 44.4406 122.905 44.2547C122.904 44.0637 122.941 43.7701 122.99 43.5798C123.037 43.3945 123.126 43.1424 123.188 43.0197C123.25 42.897 123.409 42.6796 123.541 42.5366C123.672 42.3937 123.907 42.201 124.063 42.1085C124.218 42.016 124.475 41.8999 124.633 41.8505C124.791 41.8011 125.101 41.7488 125.321 41.7343C125.612 41.7151 125.825 41.7287 126.098 41.7837C126.304 41.8254 126.623 41.9313 126.806 42.0189C127.045 42.1336 127.219 42.2606 127.427 42.4724C127.608 42.6576 127.767 42.874 127.854 43.0562C127.93 43.2154 128.02 43.4559 128.053 43.5906C128.086 43.7254 128.112 44.046 128.111 44.3033C128.11 44.6185 128.084 44.858 128.03 45.0382C127.987 45.1851 127.888 45.4254 127.811 45.572C127.734 45.7187 127.561 45.9492 127.427 46.0842C127.292 46.2193 127.043 46.4032 126.872 46.493C126.702 46.5828 126.442 46.6872 126.296 46.725C126.15 46.7628 125.87 46.8034 125.675 46.8151ZM125.631 45.7921C125.753 45.7798 125.948 45.7388 126.064 45.7009C126.19 45.6596 126.37 45.5443 126.512 45.4139C126.659 45.2798 126.791 45.1054 126.855 44.9611C126.943 44.7645 126.961 44.6538 126.961 44.28C126.961 43.8653 126.951 43.8127 126.816 43.5368C126.736 43.3734 126.606 43.1853 126.527 43.1186C126.449 43.0519 126.282 42.9499 126.156 42.8919C126.031 42.8339 125.799 42.7743 125.641 42.7594C125.418 42.7385 125.285 42.7535 125.045 42.8266C124.827 42.8931 124.674 42.9759 124.524 43.1091C124.392 43.2252 124.263 43.3975 124.188 43.5582C124.12 43.7015 124.051 43.9361 124.035 44.0795C124.017 44.2344 124.027 44.4458 124.058 44.6001C124.088 44.7431 124.148 44.9325 124.193 45.0211C124.238 45.1097 124.327 45.2453 124.392 45.3226C124.457 45.3998 124.602 45.5173 124.714 45.5835C124.827 45.6498 125.029 45.7289 125.164 45.7592C125.299 45.7895 125.509 45.8043 125.631 45.7921ZM130.774 46.836C130.677 46.8336 130.487 46.8134 130.353 46.7911C130.219 46.7689 129.987 46.6933 129.838 46.6231C129.689 46.553 129.484 46.4208 129.383 46.3294C129.276 46.2318 129.136 46.0319 129.046 45.8456C128.961 45.671 128.872 45.3978 128.847 45.2386C128.822 45.0793 128.802 44.3152 128.802 43.5405L128.801 42.1318L129.278 42.0131C129.54 41.9478 129.788 41.8843 129.829 41.872C129.898 41.8513 129.905 41.9749 129.918 43.4471L129.932 45.0447L130.065 45.3065C130.177 45.5267 130.236 45.5882 130.436 45.693C130.631 45.7955 130.73 45.8176 130.99 45.8175C131.247 45.8175 131.357 45.7933 131.578 45.6883C131.743 45.6098 131.948 45.4594 132.099 45.3049L132.348 45.0506V42.1403L133.457 41.8653V46.7083H132.437V46.124L132.226 46.3001C132.111 46.397 131.909 46.53 131.778 46.5957C131.647 46.6614 131.407 46.7434 131.246 46.7778C131.084 46.8122 130.872 46.8385 130.774 46.836ZM75.9041 46.7932C75.5939 46.792 75.3138 46.7663 75.1889 46.7277C75.076 46.6928 74.8866 46.599 74.768 46.5193C74.6357 46.4303 74.499 46.2846 74.4144 46.1422C74.3386 46.0145 74.2536 45.7957 74.2257 45.6559C74.1945 45.5001 74.1749 44.9051 74.1749 44.1176V42.8334H73.3324V41.8536H74.1749V40.4021L74.6737 40.2808C74.948 40.2141 75.1974 40.1598 75.2279 40.1603C75.2703 40.1609 75.2833 40.3605 75.2833 41.0073V41.8536H77.0126V42.8334H75.2833L75.2842 44.0471C75.2851 45.1529 75.2932 45.2778 75.3714 45.4516C75.4372 45.5973 75.5025 45.6629 75.6475 45.729C75.7809 45.7898 75.937 45.8159 76.1718 45.8166C76.3557 45.8171 76.6151 45.7889 76.7482 45.7539C76.8814 45.7189 77.0252 45.6767 77.0679 45.6601C77.139 45.6324 77.1455 45.6715 77.1455 46.1228V46.6158L76.9792 46.6601C76.8878 46.6844 76.7232 46.7248 76.6134 46.7498C76.5037 46.7748 76.1846 46.7943 75.9041 46.7932ZM57.3702 46.7083V40.7401H55.0202V39.6712H60.8287V40.7401H58.523V46.7083H57.3702ZM59.8089 46.7083V41.8536H60.8287V42.5402L61.0171 42.3597C61.1208 42.2604 61.267 42.137 61.3422 42.0855C61.4174 42.034 61.5864 41.9492 61.7179 41.8971C61.8494 41.8451 62.1003 41.7863 62.2755 41.7666C62.4507 41.7469 62.6457 41.7407 62.709 41.7528L62.8239 41.7749V42.8225L62.436 42.8438C62.1897 42.8572 61.9577 42.9 61.8006 42.9609C61.6646 43.0137 61.4669 43.1311 61.3614 43.2218C61.2559 43.3125 61.1128 43.4766 61.0434 43.5865L60.9173 43.7862V46.7083L59.8089 46.7083ZM79.183 46.7083C78.6428 46.7083 78.5586 46.699 78.5806 46.6415C78.5946 46.6047 79.2602 45.0209 80.0596 43.1218L81.5131 39.669L82.8258 39.6934L84.265 43.1229C85.0566 45.0092 85.7155 46.5881 85.7292 46.6316C85.7526 46.7054 85.7111 46.71 85.1271 46.6984L84.4999 46.6861L83.902 45.2163L80.4369 45.193L80.2057 45.7614C80.0786 46.074 79.9378 46.4149 79.8928 46.519L79.811 46.7083L79.183 46.7083ZM82.156 44.1251C82.8632 44.1251 83.4419 44.1112 83.4419 44.0943C83.4419 44.0774 83.1748 43.411 82.8485 42.6134C82.5221 41.8158 82.2414 41.1181 82.2247 41.063C82.2081 41.0079 82.1758 40.9628 82.153 40.9628C82.1303 40.9628 82.1117 40.9837 82.1117 41.0092C82.1117 41.0347 81.8323 41.7368 81.4909 42.5693C81.1495 43.4019 80.8702 44.0926 80.8702 44.1041C80.8702 44.1156 81.4488 44.1251 82.156 44.1251ZM86.324 46.7083V41.8536H87.2994V42.4668L87.4871 42.2945C87.5903 42.1997 87.7865 42.0624 87.923 41.9893C88.0596 41.9162 88.2886 41.8257 88.4319 41.7882C88.5753 41.7506 88.8131 41.7203 88.9604 41.7206C89.1077 41.721 89.3535 41.7509 89.5067 41.7872C89.6599 41.8235 89.8664 41.8948 89.9656 41.9456C90.0648 41.9965 90.2366 42.1218 90.3473 42.2242C90.4581 42.3265 90.595 42.4839 90.6516 42.5738C90.7083 42.6638 90.7953 42.8585 90.8449 43.0067C90.9296 43.2592 90.9353 43.3834 90.9353 44.9922V46.7083H89.8268L89.8262 45.1161C89.8256 43.5325 89.8254 43.5225 89.7201 43.2959C89.662 43.1705 89.5474 43.0166 89.4654 42.9538C89.3834 42.8909 89.2566 42.8159 89.1835 42.787C89.1105 42.7581 88.9164 42.7337 88.7523 42.7328C88.5056 42.7315 88.405 42.7554 88.1719 42.8707C87.9998 42.9558 87.8008 43.1048 87.6611 43.2532L87.4323 43.4962V46.7083L86.324 46.7083ZM96.5658 46.7083L96.5886 40.4141L97.0541 40.288C97.3102 40.2186 97.5546 40.1617 97.5973 40.1615C97.6691 40.1611 97.6749 40.2426 97.6749 41.252V42.3429L97.8811 42.1848C97.9945 42.0978 98.1635 41.9877 98.2566 41.9399C98.3497 41.8922 98.5512 41.8235 98.7044 41.7872C98.8576 41.7509 99.0849 41.721 99.2096 41.7206C99.3343 41.7203 99.5438 41.7404 99.675 41.7654C99.8063 41.7904 100.034 41.8672 100.18 41.9361C100.327 42.0049 100.54 42.1555 100.655 42.2706C100.769 42.3858 100.923 42.6046 100.997 42.7569C101.071 42.9092 101.151 43.1641 101.176 43.3234C101.201 43.4826 101.222 44.3094 101.222 45.1606L101.222 46.7083H100.12L100.106 45.1161C100.092 43.6024 100.087 43.5139 99.9977 43.3234C99.9459 43.2131 99.8462 43.0689 99.776 43.0028C99.7057 42.9368 99.5685 42.8489 99.4709 42.8076C99.3658 42.7631 99.1745 42.7322 99.0014 42.7319C98.7797 42.7314 98.6483 42.7593 98.4562 42.8476C98.3041 42.9176 98.098 43.0697 97.9392 43.2292L97.675 43.4944V46.7083H96.5658ZM108.006 46.7083V41.8536H108.981V42.5498L109.201 42.3371C109.322 42.22 109.518 42.0752 109.635 42.0151C109.753 41.9551 109.959 41.8753 110.092 41.8379C110.225 41.8005 110.434 41.7653 110.556 41.7599C110.677 41.7544 110.832 41.7532 110.899 41.7572L111.021 41.7644V42.8212L110.607 42.843C110.288 42.8598 110.136 42.8912 109.943 42.9799C109.805 43.0433 109.623 43.1483 109.538 43.2134C109.453 43.2785 109.323 43.4235 109.249 43.5356L109.115 43.7394V46.7083L108.006 46.7083ZM119.667 46.7083V41.8536H120.643L120.644 42.5885L120.762 42.4375C120.827 42.3545 121 42.2089 121.147 42.114C121.293 42.019 121.534 41.9037 121.682 41.8577C121.83 41.8118 122.061 41.7695 122.195 41.7638C122.329 41.7581 122.494 41.756 122.561 41.7589L122.683 41.7644V42.8212L122.269 42.843C121.944 42.86 121.798 42.8908 121.592 42.9851C121.448 43.0513 121.263 43.1695 121.181 43.2478C121.098 43.326 120.974 43.4683 120.904 43.5638L120.776 43.7375V46.7083L119.667 46.7083Z" fill="#F5F6F7"/>
</svg>
