<svg width="120" height="120" viewBox="0 0 120 120" fill="none" xmlns="http://www.w3.org/2000/svg">
<path d="M60 1.2C60 0.537259 60.5373 -0.0012543 61.1999 0.0119997C64.1706 0.0714215 67.1328 0.351429 70.062 0.849709C70.7153 0.960851 71.1422 1.59051 71.018 2.24151L65.8463 29.3526C65.7221 30.0036 65.094 30.4282 64.4385 30.3302C63.3652 30.1696 62.284 30.0674 61.1997 30.024C60.5375 29.9975 60 29.4627 60 28.8V1.2Z" fill="#3E776D"/>
<path d="M75.2186 3.20356C75.3901 2.5634 76.0485 2.18233 76.6851 2.36662C84.3918 4.59771 91.5728 8.35189 97.8032 13.4069C98.3178 13.8244 98.3807 14.5826 97.9529 15.0888L80.1383 36.1696C79.7105 36.6758 78.9548 36.7373 78.4319 36.3301C75.5853 34.1134 72.362 32.4283 68.9172 31.3559C68.2844 31.1589 67.9036 30.5033 68.0751 29.8631L75.2186 3.20356Z" fill="#3E776D"/>
<path d="M101.578 18.4221C102.047 17.9535 102.807 17.9527 103.266 18.4306C108.825 24.2161 113.167 31.0578 116.035 38.5507C116.272 39.1697 115.947 39.8577 115.324 40.0822L89.3555 49.4314C88.7319 49.6559 88.0467 49.3313 87.7975 48.7172C86.4406 45.3742 84.4917 42.3032 82.0445 39.6521C81.595 39.1651 81.5931 38.4069 82.0617 37.9383L101.578 18.4221Z" fill="#3E776D"/>
<path d="M118.8 60C119.463 60 120.001 60.5374 119.988 61.2C119.828 69.2215 118.06 77.1295 114.79 84.4559C114.52 85.0611 113.803 85.318 113.204 85.0358L88.2306 73.2843C87.6309 73.0021 87.3759 72.2881 87.6339 71.6776C89.0383 68.3543 89.8317 64.8047 89.976 61.1997C90.0025 60.5375 90.5373 60 91.2 60H118.8Z" fill="#4375B0"/>
<path d="M89.4 110.922C89.7314 111.496 89.5352 112.231 88.9548 112.551C81.9278 116.423 74.1954 118.846 66.2154 119.677C65.5563 119.746 64.9757 119.254 64.9202 118.594L62.6107 91.0906C62.5553 90.4302 63.0461 89.8523 63.7038 89.7705C67.2841 89.3251 70.7549 88.2374 73.949 86.5598C74.5358 86.2517 75.2686 86.446 75.6 87.02L89.4 110.922Z" fill="#A87AB0"/>
<path d="M18.4221 101.578C17.9535 102.047 17.1927 102.047 16.7335 101.569C11.175 95.7839 6.83306 88.9421 3.96493 81.4493C3.72801 80.8303 4.05265 80.1423 4.67621 79.9178L30.6445 70.5686C31.2681 70.3441 31.9533 70.6687 32.2025 71.2828C33.5594 74.6258 35.5083 77.6968 37.9554 80.3479C38.405 80.8349 38.4069 81.5931 37.9383 82.0617L18.4221 101.578Z" fill="#F75606"/>
<path d="M18.4221 18.4221C17.9535 17.9535 17.9527 17.1927 18.4306 16.7336C24.2161 11.175 31.0579 6.83306 38.5508 3.96492C39.1697 3.728 39.8577 4.05264 40.0822 4.6762L49.4314 30.6445C49.6559 31.2681 49.3313 31.9533 48.7172 32.2025C45.3742 33.5594 42.3032 35.5083 39.6521 37.9554C39.1651 38.405 38.4069 38.4069 37.9383 37.9383L18.4221 18.4221Z" fill="#FFBB00"/>
<path d="M44.7814 3.20356C44.6099 2.5634 44.9895 1.90417 45.633 1.74548C48.5178 1.03401 51.4515 0.537807 54.4099 0.260978C55.0698 0.199232 55.6451 0.696946 55.6936 1.35791L57.715 28.8838C57.7635 29.5447 57.2666 30.1174 56.6082 30.1924C55.5299 30.3151 54.4591 30.4962 53.4004 30.7349C52.7539 30.8807 52.0964 30.5033 51.9248 29.8631L44.7814 3.20356Z" fill="#FFBB00"/>
<path d="M1.2 60C0.537259 60 -0.00125366 59.4626 0.012 58.8C0.172447 50.7785 1.94011 42.8705 5.21031 35.5441C5.48044 34.9389 6.19651 34.682 6.79618 34.9642L31.7694 46.7157C32.3691 46.9979 32.6241 47.7119 32.3661 48.3224C30.9617 51.6457 30.1683 55.1953 30.024 58.8003C29.9975 59.4625 29.4627 60 28.8 60H1.2Z" fill="#F75606"/>
<path d="M116.796 44.7815C117.437 44.6099 118.096 44.9896 118.255 45.633C118.966 48.5178 119.462 51.4516 119.739 54.4099C119.801 55.0698 119.303 55.6451 118.642 55.6936L91.1162 57.715C90.4553 57.7635 89.8826 57.2667 89.8076 56.6082C89.6849 55.5299 89.5038 54.4591 89.2651 53.4005C89.1193 52.7539 89.4967 52.0964 90.1369 51.9249L116.796 44.7815Z" fill="#3E776D"/>
<path d="M101.578 101.578C102.047 102.047 102.047 102.807 101.569 103.266C99.4268 105.325 97.1343 107.222 94.7107 108.94C94.1701 109.324 93.423 109.18 93.0505 108.632L77.537 85.8049C77.1645 85.2568 77.3084 84.5124 77.8412 84.1182C78.7137 83.4729 79.5505 82.7806 80.3479 82.0445C80.8349 81.595 81.5931 81.5931 82.0617 82.0617L101.578 101.578Z" fill="#4375B0"/>
<path d="M30.6 110.922C30.2686 111.496 29.534 111.694 28.9668 111.351C26.4239 109.814 23.9986 108.091 21.7109 106.195C21.2007 105.772 21.1458 105.013 21.5789 104.511L39.6133 83.6182C40.0463 83.1166 40.8026 83.0629 41.3212 83.4756C42.1704 84.1513 43.0557 84.7804 43.973 85.3601C44.5333 85.7142 44.7314 86.446 44.4 87.02L30.6 110.922Z" fill="#A87AB0"/>
<path d="M9.07771 30.6C8.50376 30.2686 8.30605 29.534 8.64883 28.9668C10.1856 26.4239 11.9092 23.9986 13.8053 21.7109C14.2283 21.2007 14.987 21.1458 15.4887 21.5789L36.3818 39.6133C36.8834 40.0463 36.9371 40.8026 36.5244 41.3212C35.8487 42.1704 35.2196 43.0557 34.6399 43.973C34.2858 44.5333 33.554 44.7314 32.98 44.4L9.07771 30.6Z" fill="#FFBB00"/>
<path d="M3.20356 75.2186C2.5634 75.3901 1.90417 75.0105 1.74548 74.367C1.03401 71.4822 0.537809 68.5485 0.260979 65.5901C0.199233 64.9303 0.696947 64.3549 1.35791 64.3064L28.8838 62.285C29.5448 62.2365 30.1174 62.7334 30.1924 63.3918C30.3151 64.4701 30.4962 65.5409 30.7349 66.5996C30.8807 67.2461 30.5033 67.9036 29.8631 68.0752L3.20356 75.2186Z" fill="#F75606"/>
<path d="M44.7814 116.796C44.6099 117.437 43.9515 117.818 43.3149 117.633C40.4608 116.807 37.6721 115.77 34.9717 114.531C34.3693 114.254 34.12 113.535 34.4084 112.939L46.4208 88.0899C46.7092 87.4933 47.4259 87.2457 48.0336 87.5101C49.0288 87.943 50.0467 88.3215 51.0828 88.6441C51.7156 88.8411 52.0964 89.4967 51.9248 90.1369L44.7814 116.796Z" fill="#A87AB0"/>
<path d="M60 118.8C60 119.463 59.4627 120.001 58.8001 119.988C55.8294 119.929 52.8672 119.649 49.938 119.15C49.2847 119.039 48.8578 118.409 48.982 117.758L54.1537 90.6474C54.2779 89.9964 54.906 89.5718 55.5615 89.6698C56.6348 89.8304 57.716 89.9326 58.8003 89.976C59.4625 90.0025 60 90.5373 60 91.2L60 118.8Z" fill="#A87AB0"/>
<path d="M110.922 89.4C111.496 89.7314 111.694 90.466 111.351 91.0332C109.814 93.5761 108.091 96.0014 106.195 98.2891C105.772 98.7993 105.013 98.8542 104.511 98.4211L83.6182 80.3867C83.1166 79.9537 83.0629 79.1974 83.4756 78.6788C84.1513 77.8296 84.7804 76.9443 85.3601 76.027C85.7142 75.4667 86.446 75.2686 87.02 75.6L110.922 89.4Z" fill="#4375B0"/>
</svg>
