<svg width="151" height="40" viewBox="0 0 151 40" fill="none" xmlns="http://www.w3.org/2000/svg">
<path d="M1.14067 39.2157C0.510696 39.2157 0 38.704 0 38.0728V1.14286C0 0.511675 0.510695 0 1.14067 0H13.1246C13.6569 0 14.1185 0.368919 14.2367 0.888947L21.7075 33.7374C21.7655 33.9926 21.992 34.1737 22.2533 34.1737C22.5625 34.1737 22.8132 33.9225 22.8132 33.6128V1.14286C22.8132 0.511674 23.3239 0 23.9538 0H28.9414C29.5714 0 30.0821 0.511675 30.0821 1.14286V38.0728C30.0821 38.704 29.5714 39.2157 28.9414 39.2157H16.9575C16.4251 39.2157 15.9636 38.8468 15.8453 38.3267L8.37459 5.47831C8.31654 5.22308 8.09001 5.04202 7.82874 5.04202C7.51955 5.04202 7.2689 5.29315 7.2689 5.60293V38.0728C7.2689 38.704 6.7582 39.2157 6.12823 39.2157H1.14067Z" fill="#F5F6F7"/>
<path d="M50.3188 40C47.5603 40 45.1187 39.4211 42.994 38.2633C40.9065 37.0682 39.2663 35.4062 38.0735 33.2773C36.9179 31.1111 36.3401 28.5714 36.3401 25.6583V24.986C36.3401 22.0728 36.9179 19.5518 38.0735 17.423C39.229 15.2568 40.8506 13.5948 42.938 12.437C45.0255 11.2418 47.4485 10.6443 50.2069 10.6443C52.9281 10.6443 55.2952 11.2605 57.3081 12.493C59.321 13.6881 60.8866 15.3688 62.0049 17.535C63.1232 19.6639 63.6824 22.1475 63.6824 24.986V26.2521C63.6824 26.8833 63.1717 27.395 62.5417 27.395H44.6835C44.036 27.395 43.5071 27.9382 43.6332 28.5745C43.9057 29.9499 44.5686 31.1067 45.622 32.0448C46.9639 33.24 48.6041 33.8375 50.5424 33.8375C52.5181 33.8375 53.9719 33.408 54.9038 32.549C55.5146 31.986 56.0293 31.3828 56.448 30.7396C56.8039 30.1927 57.5116 29.9456 58.0887 30.2488L61.7662 32.1805C62.3286 32.4759 62.5435 33.1761 62.1934 33.7068C61.7363 34.3993 61.1703 35.1338 60.4952 35.9104C59.5261 37.0308 58.2214 38.0019 56.5812 38.8235C54.941 39.6078 52.8536 40 50.3188 40ZM43.8825 20.8279C43.6466 21.4915 44.1914 22.1289 44.8945 22.1289H55.2736C55.9453 22.1289 56.484 21.5438 56.2947 20.8981C55.9875 19.8506 55.412 18.9723 54.5683 18.2633C53.45 17.2923 51.9776 16.8067 50.151 16.8067C48.2499 16.8067 46.7402 17.2923 45.622 18.2633C44.8237 18.9564 44.2439 19.8113 43.8825 20.8279Z" fill="#F5F6F7"/>
<path d="M80.521 39.6639C78.3589 39.6639 76.4578 39.1783 74.8177 38.2073C73.2148 37.1989 71.966 35.817 71.0714 34.0616C70.1768 32.3063 69.7294 30.2895 69.7294 28.0112V12.5714C69.7294 11.9402 70.2401 11.4286 70.8701 11.4286H75.634C76.264 11.4286 76.7747 11.9402 76.7747 12.5714V27.451C76.7747 29.5425 77.2779 31.1111 78.2844 32.1569C79.3281 33.2026 80.8005 33.7255 82.7016 33.7255C84.8637 33.7255 86.5411 33.0159 87.7339 31.5966C88.9268 30.1401 89.5232 28.1232 89.5232 25.5462V12.5714C89.5232 11.9402 90.0339 11.4286 90.6639 11.4286H95.4278C96.0578 11.4286 96.5684 11.9402 96.5684 12.5714V38.0728C96.5684 38.704 96.0578 39.2157 95.4278 39.2157H90.7757C90.1457 39.2157 89.635 38.704 89.635 38.0728V36.1932C89.635 35.8513 89.3585 35.5742 89.0173 35.5742C88.7797 35.5742 88.566 35.7124 88.4458 35.9178C87.9691 36.7327 87.1913 37.5332 86.1124 38.3193C84.8823 39.2157 83.0185 39.6639 80.521 39.6639Z" fill="#F5F6F7"/>
<path d="M105.549 39.2157C104.919 39.2157 104.408 38.704 104.408 38.0728V12.5714C104.408 11.9402 104.919 11.4286 105.549 11.4286H110.201C110.831 11.4286 111.342 11.9402 111.342 12.5714V13.9721C111.342 14.3 111.607 14.5658 111.934 14.5658C112.183 14.5658 112.402 14.4089 112.504 14.1817C112.92 13.2557 113.539 12.562 114.361 12.1008C115.33 11.578 116.449 11.3165 117.716 11.3165H119.93C120.56 11.3165 121.071 11.8282 121.071 12.4594V16.4482C121.071 17.0794 120.56 17.591 119.93 17.591H117.604C115.815 17.591 114.342 18.0766 113.187 19.0476C112.031 19.9813 111.454 21.4379 111.454 23.4174V38.0728C111.454 38.704 110.943 39.2157 110.313 39.2157H105.549Z" fill="#F5F6F7"/>
<path d="M136.755 12.5714C136.755 11.9402 137.267 11.4238 137.895 11.4743C139.75 11.6233 141.563 12.1354 143.228 12.9856C144.894 13.8358 146.372 15.004 147.584 16.4206C147.993 16.8999 147.877 17.6181 147.367 17.9891L142.407 21.5998C142.152 21.7853 141.798 21.7267 141.591 21.4889C141.053 20.8709 140.4 20.3603 139.668 19.9864C138.18 19.2268 136.755 17.9294 136.755 16.2563V12.5714Z" fill="#29BF86"/>
<path d="M148.337 19.5441C148.894 19.2478 149.589 19.4578 149.839 20.037C150.13 20.711 150.369 21.4064 150.554 22.1172C150.713 22.7281 150.294 23.3225 149.673 23.4321L144.838 24.2862C143.864 24.4584 142.956 23.7876 142.522 22.8965C142.468 22.7851 142.509 22.6491 142.618 22.5909L148.337 19.5441Z" fill="#29BF86"/>
<path d="M131.841 37.9001C131.605 38.4854 130.938 38.7722 130.374 38.4897C128.709 37.655 127.22 36.4999 125.994 35.0866C124.768 33.6732 123.833 32.0351 123.24 30.267C123.039 29.6687 123.416 29.0465 124.027 28.8938L127.596 28.0024C129.216 27.5976 130.817 28.6691 131.913 29.9318C132.452 30.5534 133.104 31.064 133.833 31.4374C134.113 31.5812 134.256 31.912 134.138 32.2046L131.841 37.9001Z" fill="#8F40D4"/>
<path d="M149.865 25.2556C150.494 25.2336 151.027 25.7277 150.999 26.3583C150.915 28.2217 150.467 30.0545 149.677 31.7517C148.888 33.4489 147.774 34.9705 146.403 36.2327C145.939 36.6598 145.219 36.5684 144.831 36.071L141.056 31.2304C140.862 30.9817 140.909 30.6243 141.139 30.4087C141.736 29.8485 142.223 29.1775 142.57 28.4311C143.276 26.9148 144.52 25.4426 146.189 25.3842L149.865 25.2556Z" fill="#4995F2"/>
<path d="M137.67 38.8251C137.714 39.4548 137.24 40.0057 136.61 39.9993C135.877 39.9918 135.145 39.9277 134.422 39.8075C133.801 39.7042 133.429 39.0792 133.582 38.4667L135.149 32.1696C135.179 32.0494 135.3 31.9767 135.421 32.0024C136.389 32.2085 137.259 32.929 137.328 33.918L137.67 38.8251Z" fill="#8F40D4"/>
<path d="M127.643 16.2601C127.205 15.8061 127.215 15.0786 127.702 14.6778C128.268 14.2115 128.869 13.7896 129.5 13.4159C130.043 13.0948 130.728 13.3343 131.005 13.9016L133.692 19.4227C133.83 19.7064 133.711 20.0463 133.441 20.2093C133.192 20.3603 132.952 20.5282 132.725 20.7118C132.48 20.91 132.121 20.9059 131.902 20.6789L127.643 16.2601Z" fill="#FFBB00"/>
<path d="M132.701 13.2147C132.507 12.6144 132.834 11.9649 133.447 11.8184C133.539 11.7963 133.632 11.7752 133.725 11.7549C134.34 11.6208 134.916 12.064 135 12.6895L135.76 18.3241C135.835 18.8871 135.437 19.3971 134.895 19.5618C134.827 19.5824 134.755 19.5456 134.733 19.4781L132.701 13.2147Z" fill="#FFBB00"/>
<path d="M124.428 21.2192C123.836 21.0033 123.527 20.3451 123.789 19.7711C124.094 19.1032 124.45 18.4599 124.854 17.8469C125.201 17.32 125.922 17.2341 126.418 17.6227L131.25 21.4047C131.498 21.599 131.539 21.9568 131.368 22.2218C131.21 22.4672 131.068 22.7232 130.944 22.988C130.811 23.2738 130.486 23.4281 130.19 23.3201L124.428 21.2192Z" fill="#FFBB00"/>
<path d="M123.709 27.0881C123.083 27.1541 122.517 26.6984 122.501 26.0674C122.483 25.3332 122.521 24.5986 122.616 23.8703C122.697 23.2444 123.308 22.8505 123.924 22.9817L130.26 24.3311C130.381 24.3568 130.458 24.4762 130.436 24.5983C130.264 25.5747 129.576 26.4703 128.592 26.5739L123.709 27.0881Z" fill="#FFBB00"/>
<path d="M143.314 37.0963C143.629 37.643 143.444 38.3464 142.875 38.6173C142.213 38.9326 141.527 39.1961 140.825 39.4058C140.221 39.5859 139.613 39.1873 139.482 38.5699L138.462 33.7583C138.256 32.7885 138.893 31.8559 139.767 31.3905C139.876 31.3324 140.013 31.3686 140.075 31.4759L143.314 37.0963Z" fill="#4995F2"/>
</svg>
